HIERARCHY
ROOT mixamorig:Hips
{
	OFFSET -0.000008 104.274872 1.554316
	CHANNELS 6 Xposition Yposition Zposition Xrotation Yrotation Zrotation
	JOINT mixamorig:Spine
	{
		OFFSET -0.000005 10.181595 0.131519
		CHANNELS 6 Xposition Yposition Zposition Xrotation Yrotation Zrotation
		JOINT mixamorig:Spine1
		{
			OFFSET -0.000000 9.893959 -1.470707
			CHANNELS 6 Xposition Yposition Zposition Xrotation Yrotation Zrotation
			JOINT mixamorig:Spine2
			{
				OFFSET -0.000000 9.220757 -1.370641
				CHANNELS 6 Xposition Yposition Zposition Xrotation Yrotation Zrotation
				JOINT mixamorig:Neck
				{
					OFFSET 0.000001 16.740417 -2.049036
					CHANNELS 6 Xposition Yposition Zposition Xrotation Yrotation Zrotation
					JOINT mixamorig:Head
					{
						OFFSET 0.000000 9.617874 1.685006
						CHANNELS 6 Xposition Yposition Zposition Xrotation Yrotation Zrotation
						JOINT mixamorig:HeadTop_End
						{
							OFFSET 0.000002 22.037354 7.501101
							CHANNELS 6 Xposition Yposition Zposition Xrotation Yrotation Zrotation
							End Site
							{
								OFFSET 0.000168 2310.654297 -282.823242
							}
						}
					}
				}
				JOINT mixamorig:RightShoulder
				{
					OFFSET -4.569970 11.014908 -2.160885
					CHANNELS 6 Xposition Yposition Zposition Xrotation Yrotation Zrotation
					JOINT mixamorig:RightArm
					{
						OFFSET -10.592851 -0.524811 -2.232101
						CHANNELS 6 Xposition Yposition Zposition Xrotation Yrotation Zrotation
						JOINT mixamorig:RightForeArm
						{
							OFFSET -27.841511 0.000031 -0.000004
							CHANNELS 6 Xposition Yposition Zposition Xrotation Yrotation Zrotation
							JOINT mixamorig:RightHand
							{
								OFFSET -28.328831 -0.000015 0.000015
								CHANNELS 6 Xposition Yposition Zposition Xrotation Yrotation Zrotation
								JOINT mixamorig:RightHandThumb1
								{
									OFFSET -2.464806 -1.573990 2.681852
									CHANNELS 6 Xposition Yposition Zposition Xrotation Yrotation Zrotation
									JOINT mixamorig:RightHandThumb2
									{
										OFFSET -3.215179 -1.872803 1.924282
										CHANNELS 6 Xposition Yposition Zposition Xrotation Yrotation Zrotation
										JOINT mixamorig:RightHandThumb3
										{
											OFFSET -2.654831 -1.527969 1.512609
											CHANNELS 6 Xposition Yposition Zposition Xrotation Yrotation Zrotation
											JOINT mixamorig:RightHandThumb4
											{
												OFFSET -2.018814 -1.152008 1.108052
												CHANNELS 6 Xposition Yposition Zposition Xrotation Yrotation Zrotation
												End Site
												{
													OFFSET -188.809540 -114.533607 132.431396
												}
											}
										}
									}
								}
								JOINT mixamorig:RightHandIndex1
								{
									OFFSET -9.108284 -0.517868 2.259835
									CHANNELS 6 Xposition Yposition Zposition Xrotation Yrotation Zrotation
									JOINT mixamorig:RightHandIndex2
									{
										OFFSET -3.699989 0.000000 0.001215
										CHANNELS 6 Xposition Yposition Zposition Xrotation Yrotation Zrotation
										JOINT mixamorig:RightHandIndex3
										{
											OFFSET -2.850006 0.000031 -0.000522
											CHANNELS 6 Xposition Yposition Zposition Xrotation Yrotation Zrotation
											JOINT mixamorig:RightHandIndex4
											{
												OFFSET -2.772186 -0.000015 -0.000020
												CHANNELS 6 Xposition Yposition Zposition Xrotation Yrotation Zrotation
												End Site
												{
													OFFSET -277.218445 0.000000 -0.050231
												}
											}
										}
									}
								}
								JOINT mixamorig:RightHandMiddle1
								{
									OFFSET -9.532516 -0.000031 -0.000023
									CHANNELS 6 Xposition Yposition Zposition Xrotation Yrotation Zrotation
									JOINT mixamorig:RightHandMiddle2
									{
										OFFSET -3.700005 -0.000015 0.003713
										CHANNELS 6 Xposition Yposition Zposition Xrotation Yrotation Zrotation
										JOINT mixamorig:RightHandMiddle3
										{
											OFFSET -2.949974 0.000015 -0.002054
											CHANNELS 6 Xposition Yposition Zposition Xrotation Yrotation Zrotation
											JOINT mixamorig:RightHandMiddle4
											{
												OFFSET -2.946640 0.000000 -0.000156
												CHANNELS 6 Xposition Yposition Zposition Xrotation Yrotation Zrotation
												End Site
												{
													OFFSET -294.664337 0.000000 -0.113670
												}
											}
										}
									}
								}
								JOINT mixamorig:RightHandRing1
								{
									OFFSET -9.103600 -0.043076 -1.865134
									CHANNELS 6 Xposition Yposition Zposition Xrotation Yrotation Zrotation
									JOINT mixamorig:RightHandRing2
									{
										OFFSET -3.379288 0.000000 -0.001055
										CHANNELS 6 Xposition Yposition Zposition Xrotation Yrotation Zrotation
										JOINT mixamorig:RightHandRing3
										{
											OFFSET -2.889687 -0.000015 0.000379
											CHANNELS 6 Xposition Yposition Zposition Xrotation Yrotation Zrotation
											JOINT mixamorig:RightHandRing4
											{
												OFFSET -2.638809 -0.000015 0.000941
												CHANNELS 6 Xposition Yposition Zposition Xrotation Yrotation Zrotation
												End Site
												{
													OFFSET -263.880371 0.000000 0.516020
												}
											}
										}
									}
								}
								JOINT mixamorig:RightHandPinky1
								{
									OFFSET -8.076683 -0.486710 -3.806280
									CHANNELS 6 Xposition Yposition Zposition Xrotation Yrotation Zrotation
									JOINT mixamorig:RightHandPinky2
									{
										OFFSET -3.600014 -0.000015 -0.003747
										CHANNELS 6 Xposition Yposition Zposition Xrotation Yrotation Zrotation
										JOINT mixamorig:RightHandPinky3
										{
											OFFSET -2.099983 0.000000 -0.005739
											CHANNELS 6 Xposition Yposition Zposition Xrotation Yrotation Zrotation
											JOINT mixamorig:RightHandPinky4
											{
												OFFSET -2.115768 -0.000031 -0.003680
												CHANNELS 6 Xposition Yposition Zposition Xrotation Yrotation Zrotation
												End Site
												{
													OFFSET -211.577087 0.000000 -0.350686
												}
											}
										}
									}
								}
							}
						}
					}
				}
				JOINT mixamorig:LeftShoulder
				{
					OFFSET 4.570447 11.014725 -2.160855
					CHANNELS 6 Xposition Yposition Zposition Xrotation Yrotation Zrotation
					JOINT mixamorig:LeftArm
					{
						OFFSET 10.592371 -0.524597 -2.232119
						CHANNELS 6 Xposition Yposition Zposition Xrotation Yrotation Zrotation
						JOINT mixamorig:LeftForeArm
						{
							OFFSET 27.841532 -0.000031 0.000026
							CHANNELS 6 Xposition Yposition Zposition Xrotation Yrotation Zrotation
							JOINT mixamorig:LeftHand
							{
								OFFSET 28.328846 -0.000061 0.000022
								CHANNELS 6 Xposition Yposition Zposition Xrotation Yrotation Zrotation
								JOINT mixamorig:LeftHandThumb1
								{
									OFFSET 2.466141 -1.576172 2.681732
									CHANNELS 6 Xposition Yposition Zposition Xrotation Yrotation Zrotation
									JOINT mixamorig:LeftHandThumb2
									{
										OFFSET 3.217812 -1.872070 1.916482
										CHANNELS 6 Xposition Yposition Zposition Xrotation Yrotation Zrotation
										JOINT mixamorig:LeftHandThumb3
										{
											OFFSET 2.656029 -1.528778 1.514513
											CHANNELS 6 Xposition Yposition Zposition Xrotation Yrotation Zrotation
											JOINT mixamorig:LeftHandThumb4
											{
												OFFSET 2.020889 -1.154053 1.115139
												CHANNELS 6 Xposition Yposition Zposition Xrotation Yrotation Zrotation
												End Site
												{
													OFFSET 190.885437 -115.081749 130.048782
												}
											}
										}
									}
								}
								JOINT mixamorig:LeftHandIndex1
								{
									OFFSET 9.109314 -0.518021 2.259871
									CHANNELS 6 Xposition Yposition Zposition Xrotation Yrotation Zrotation
									JOINT mixamorig:LeftHandIndex2
									{
										OFFSET 3.699989 0.000000 -0.000322
										CHANNELS 6 Xposition Yposition Zposition Xrotation Yrotation Zrotation
										JOINT mixamorig:LeftHandIndex3
										{
											OFFSET 2.850006 0.000000 0.000352
											CHANNELS 6 Xposition Yposition Zposition Xrotation Yrotation Zrotation
											JOINT mixamorig:LeftHandIndex4
											{
												OFFSET 2.774864 -0.000031 -0.000027
												CHANNELS 6 Xposition Yposition Zposition Xrotation Yrotation Zrotation
												End Site
												{
													OFFSET 277.486267 0.000000 -0.009857
												}
											}
										}
									}
								}
								JOINT mixamorig:LeftHandMiddle1
								{
									OFFSET 9.533394 0.000061 0.000044
									CHANNELS 6 Xposition Yposition Zposition Xrotation Yrotation Zrotation
									JOINT mixamorig:LeftHandMiddle2
									{
										OFFSET 3.699989 -0.000015 -0.000231
										CHANNELS 6 Xposition Yposition Zposition Xrotation Yrotation Zrotation
										JOINT mixamorig:LeftHandMiddle3
										{
											OFFSET 2.949997 -0.000015 -0.000059
											CHANNELS 6 Xposition Yposition Zposition Xrotation Yrotation Zrotation
											JOINT mixamorig:LeftHandMiddle4
											{
												OFFSET 2.952896 0.000031 0.000063
												CHANNELS 6 Xposition Yposition Zposition Xrotation Yrotation Zrotation
												End Site
												{
													OFFSET 295.289337 0.000000 0.022810
												}
											}
										}
									}
								}
								JOINT mixamorig:LeftHandRing1
								{
									OFFSET 9.104523 -0.042999 -1.865074
									CHANNELS 6 Xposition Yposition Zposition Xrotation Yrotation Zrotation
									JOINT mixamorig:LeftHandRing2
									{
										OFFSET 3.150009 -0.000031 0.000043
										CHANNELS 6 Xposition Yposition Zposition Xrotation Yrotation Zrotation
										JOINT mixamorig:LeftHandRing3
										{
											OFFSET 2.949982 -0.000015 0.000040
											CHANNELS 6 Xposition Yposition Zposition Xrotation Yrotation Zrotation
											JOINT mixamorig:LeftHandRing4
											{
												OFFSET 2.644348 0.000000 0.000057
												CHANNELS 6 Xposition Yposition Zposition Xrotation Yrotation Zrotation
												End Site
												{
													OFFSET 264.434631 0.000000 0.012105
												}
											}
										}
									}
								}
								JOINT mixamorig:LeftHandPinky1
								{
									OFFSET 8.077789 -0.486847 -3.806259
									CHANNELS 6 Xposition Yposition Zposition Xrotation Yrotation Zrotation
									JOINT mixamorig:LeftHandPinky2
									{
										OFFSET 3.599953 0.000031 0.014727
										CHANNELS 6 Xposition Yposition Zposition Xrotation Yrotation Zrotation
										JOINT mixamorig:LeftHandPinky3
										{
											OFFSET 2.100021 0.000015 0.007705
											CHANNELS 6 Xposition Yposition Zposition Xrotation Yrotation Zrotation
											JOINT mixamorig:LeftHandPinky4
											{
												OFFSET 2.125504 0.000031 0.007517
												CHANNELS 6 Xposition Yposition Zposition Xrotation Yrotation Zrotation
												End Site
												{
													OFFSET 212.550781 0.000000 0.625752
												}
											}
										}
									}
								}
							}
						}
					}
				}
			}
		}
	}
	JOINT mixamorig:RightUpLeg
	{
		OFFSET -8.207787 -6.751648 -1.599560
		CHANNELS 6 Xposition Yposition Zposition Xrotation Yrotation Zrotation
		JOINT mixamorig:RightLeg
		{
			OFFSET -0.000002 -44.370117 0.345942
			CHANNELS 6 Xposition Yposition Zposition Xrotation Yrotation Zrotation
			JOINT mixamorig:RightFoot
			{
				OFFSET 0.000003 -44.423679 -3.043532
				CHANNELS 6 Xposition Yposition Zposition Xrotation Yrotation Zrotation
				JOINT mixamorig:RightToeBase
				{
					OFFSET -0.000002 -8.728671 10.710558
					CHANNELS 6 Xposition Yposition Zposition Xrotation Yrotation Zrotation
					JOINT mixamorig:RightToe_End
					{
						OFFSET -0.000001 -0.000679 9.278119
						CHANNELS 6 Xposition Yposition Zposition Xrotation Yrotation Zrotation
						End Site
						{
							OFFSET 0.000000 -0.067690 927.812134
						}
					}
				}
			}
		}
	}
	JOINT mixamorig:LeftUpLeg
	{
		OFFSET 8.207793 -6.751686 -1.599556
		CHANNELS 6 Xposition Yposition Zposition Xrotation Yrotation Zrotation
		JOINT mixamorig:LeftLeg
		{
			OFFSET -0.000004 -44.370014 0.346954
			CHANNELS 6 Xposition Yposition Zposition Xrotation Yrotation Zrotation
			JOINT mixamorig:LeftFoot
			{
				OFFSET -0.000001 -44.423672 -3.044401
				CHANNELS 6 Xposition Yposition Zposition Xrotation Yrotation Zrotation
				JOINT mixamorig:LeftToeBase
				{
					OFFSET -0.000002 -8.728669 10.710558
					CHANNELS 6 Xposition Yposition Zposition Xrotation Yrotation Zrotation
					JOINT mixamorig:LeftToe_End
					{
						OFFSET -0.000003 -0.000679 9.278133
						CHANNELS 6 Xposition Yposition Zposition Xrotation Yrotation Zrotation
						End Site
						{
							OFFSET 0.000000 -0.068021 927.813477
						}
					}
				}
			}
		}
	}
}
MOTION
Frames: 3
Frame Time: 0.033333
0.000006 104.270477 1.554256 0.000010 0.000003 -0.000113 -0.000005 10.181587 0.131522 0.000001 -0.000003 0.000084 -0.000000 9.893967 -1.470711 0.000001 0.000000 -0.000000 -0.000000 9.220802 -1.370642 0.000000 -0.000000 -0.000000 0.000001 16.740433 -2.049030 0.000000 -0.000000 -0.000000 0.000000 9.617859 1.685014 0.000000 0.000000 0.000000 0.000002 22.037384 7.501101 0.000000 -0.000000 0.000000 -4.569968 11.014880 -2.160881 0.000008 0.000001 -0.000038 -10.592875 -0.524762 -2.231905 73.847841 28.095281 -21.297705 -27.841515 0.000006 0.000548 -51.259501 109.929723 68.765470 -28.328829 0.000006 0.000023 -0.000326 -0.000043 0.000007 -2.464433 -1.573748 2.682330 -49.524906 -171.836891 -14.376380 -3.215279 -1.872585 1.924666 155.036688 30.708708 -1.925200 -2.654962 -1.527886 1.513073 145.640219 27.001379 -39.403129 -2.018826 -1.151981 1.108062 -0.000004 -0.000001 0.000002 -9.108386 -0.517563 2.260139 103.272324 16.636104 -20.988601 -3.700082 0.000302 0.001531 98.715713 14.353035 -16.662376 -2.850090 0.000368 -0.000256 96.684429 11.676998 -13.112460 -2.772160 -0.000016 -0.000018 -0.000000 -0.000001 -0.000001 -9.532598 0.000262 0.000197 88.683490 18.075493 -17.813345 -3.700072 0.000314 0.003933 85.694265 14.298466 -13.181818 -2.950055 0.000324 -0.001851 86.781378 11.988018 -11.330452 -2.946620 0.000001 -0.000152 0.000001 -0.000000 0.000001 -9.103709 -0.042787 -1.864900 81.355900 22.416502 -19.289718 -3.379350 0.000288 -0.000867 80.681473 12.039261 -10.250478 -2.889748 0.000351 0.000590 87.149102 6.159042 -5.903364 -2.638805 -0.000002 0.000940 -0.000002 0.000001 0.000001 -8.076754 -0.486430 -3.806096 69.712879 20.289217 -14.095880 -3.600025 0.000249 -0.003598 70.020217 8.893929 -5.983100 -2.100016 0.000297 -0.005583 73.887798 4.152551 -2.961386 -2.115764 -0.000028 -0.003674 -0.000000 -0.000002 -0.000005 4.570446 11.014691 -2.160851 -0.000018 0.000010 -0.000021 10.592414 -0.524467 -2.232370 74.292234 -17.634696 13.404448 27.841831 0.000079 -0.000198 108.890899 -70.338996 89.184334 28.328840 -0.000028 0.000023 0.000021 -0.000089 -0.000000 2.465858 -1.576010 2.681880 -54.580844 -174.671419 39.598339 3.217826 -1.871768 1.916367 152.624033 -28.917279 12.636102 2.656094 -1.528635 1.514438 141.185502 -28.010275 35.858244 2.020892 -1.154084 1.115153 -0.000002 0.000000 -0.000001 9.109362 -0.517863 2.259722 80.911254 -13.291604 11.337852 3.700035 0.000131 -0.000461 78.358539 -14.409387 11.778238 2.850058 0.000160 0.000207 77.030020 -13.304055 10.604605 2.774879 -0.000029 -0.000027 0.000000 0.000001 0.000000 9.533437 0.000200 -0.000089 74.960841 -13.689547 10.510801 3.700034 0.000155 -0.000372 79.733661 -16.232255 13.581375 2.950079 0.000132 -0.000189 80.147468 -19.466287 16.425570 2.952884 -0.000016 0.000062 0.000000 -0.000001 -0.000001 9.104567 -0.042863 -1.865221 75.109480 -13.727683 10.576612 3.150062 0.000167 -0.000083 80.737583 -15.364833 13.085375 2.950004 0.000141 -0.000074 81.810742 -17.241909 14.967950 2.644309 0.000033 0.000053 -0.000001 0.000000 0.000000 8.077835 -0.486763 -3.806395 65.052675 -16.948435 11.243968 3.599991 0.000128 0.014580 66.830375 -13.521330 9.288892 2.100024 0.000135 0.007555 69.607551 -12.804058 9.263468 2.125498 -0.000013 0.007514 -0.000000 0.000000 -0.000001 -8.207786 -6.751667 -1.599560 -0.077001 -0.000003 0.000080 -0.000002 -44.370110 0.345938 0.153719 -0.000000 -0.000000 0.000000 -44.423679 -3.043532 -0.076700 0.000000 -0.000002 -0.000006 -8.728667 10.710559 -0.000009 -0.000000 -0.000000 -0.000001 -0.000679 9.278123 0.000000 -0.000000 -0.000000 8.207792 -6.751710 -1.599556 -0.074518 -0.000003 0.000081 -0.000002 -44.370014 0.346960 0.148822 0.000002 0.000000 -0.000001 -44.423664 -3.044403 -0.074314 0.000000 -0.000002 -0.000004 -8.728671 10.710558 0.000007 -0.000000 -0.000000 0.000000 -0.000680 9.278137 -0.000000 0.000000 -0.000001 
0.000006 104.270477 1.554256 0.000010 0.000003 -0.000113 -0.000005 10.181587 0.131522 0.000001 -0.000003 0.000084 -0.000000 9.893967 -1.470711 0.000001 0.000000 -0.000000 -0.000000 9.220802 -1.370642 0.000000 -0.000000 -0.000000 0.000001 16.740433 -2.049030 0.000000 -0.000000 -0.000000 0.000000 9.617859 1.685014 0.000000 0.000000 0.000000 0.000002 22.037384 7.501101 0.000000 -0.000000 0.000000 -4.569968 11.014880 -2.160881 0.000008 0.000001 -0.000038 -10.592866 -0.524776 -2.231898 74.900708 32.864992 -25.459351 -27.841526 -0.000003 0.000553 -47.197659 106.518815 60.675159 -28.328821 0.000007 0.000023 -0.000315 -0.000042 0.000007 -2.464449 -1.573696 2.682279 -53.701495 -176.259411 -29.069271 -3.215270 -1.872553 1.924634 151.192671 31.827046 8.594947 -2.654955 -1.527887 1.513071 145.618581 27.731014 -30.693494 -2.018834 -1.151998 1.108063 -0.000003 -0.000002 0.000002 -9.108375 -0.517544 2.260136 101.742402 14.705824 -18.082922 -3.700060 0.000319 0.001528 100.337842 13.638330 -16.289392 -2.850099 0.000359 -0.000242 99.226816 12.283145 -14.417368 -2.772155 0.000000 -0.000022 -0.000000 -0.000000 -0.000000 -9.532574 0.000266 0.000182 84.505621 15.883117 -14.574425 -3.700086 0.000321 0.003940 88.039492 12.128168 -11.631407 -2.950086 0.000330 -0.001831 91.219826 12.429497 -12.687502 -2.946621 0.000003 -0.000155 -0.000001 0.000000 -0.000002 -9.103697 -0.042776 -1.864897 79.219983 19.595102 -16.227741 -3.379338 0.000304 -0.000851 83.788185 8.770334 -7.885955 -2.889752 0.000358 0.000583 89.000739 7.215992 -7.136477 -2.638804 -0.000015 0.000939 -0.000000 -0.000002 0.000001 -8.076761 -0.486427 -3.806088 67.892777 21.588490 -14.517046 -3.600062 0.000240 -0.003582 71.208964 9.832228 -6.786824 -2.100027 0.000303 -0.005579 74.636769 5.379387 -3.934650 -2.115767 -0.000053 -0.003676 0.000001 -0.000001 -0.000004 4.570446 11.014691 -2.160851 -0.000018 0.000010 -0.000021 10.592434 -0.524464 -2.232388 74.053949 -24.841483 18.864718 27.841837 0.000034 -0.000181 110.912799 -73.261080 94.406786 28.328838 -0.000044 0.000017 0.000022 -0.000087 -0.000000 2.465862 -1.575984 2.681879 -53.060926 -165.003150 44.829021 3.217860 -1.871822 1.916400 157.560183 -25.868875 28.555491 2.656108 -1.528660 1.514476 139.220552 -27.864038 50.526440 2.020899 -1.154070 1.115147 -0.000000 0.000001 0.000002 9.109373 -0.517872 2.259743 81.691166 -16.833081 14.568857 3.700037 0.000135 -0.000487 78.705656 -12.498380 10.276264 2.850059 0.000184 0.000205 78.440474 -10.550250 8.617862 2.774879 -0.000046 -0.000030 -0.000001 -0.000000 0.000000 9.533469 0.000179 -0.000088 76.651368 -16.616855 13.162711 3.700028 0.000146 -0.000375 78.292546 -12.087861 9.849879 2.950050 0.000150 -0.000216 79.295983 -12.505069 10.378083 2.952873 -0.000030 0.000064 -0.000000 0.000000 -0.000000 9.104582 -0.042878 -1.865237 76.273576 -15.917138 12.529537 3.150037 0.000181 -0.000101 80.792737 -11.565020 9.852100 2.950005 0.000163 -0.000080 82.409955 -10.953085 9.598727 2.644325 0.000031 0.000058 0.000001 0.000001 -0.000000 8.077838 -0.486777 -3.806399 67.589612 -18.035958 12.537614 3.599999 0.000136 0.014584 69.078375 -14.842513 10.610119 2.100030 0.000159 0.007551 72.220412 -11.327109 8.628577 2.125483 0.000000 0.007512 -0.000000 -0.000002 -0.000001 -8.207786 -6.751667 -1.599560 -0.077001 -0.000003 0.000080 -0.000002 -44.370110 0.345938 0.153719 -0.000000 -0.000000 0.000000 -44.423679 -3.043532 -0.076700 0.000000 -0.000002 -0.000006 -8.728667 10.710559 -0.000009 -0.000000 -0.000000 -0.000001 -0.000679 9.278123 0.000000 -0.000000 -0.000000 8.207792 -6.751710 -1.599556 -0.074518 -0.000003 0.000081 -0.000002 -44.370014 0.346960 0.148822 0.000002 0.000000 -0.000001 -44.423664 -3.044403 -0.074314 0.000000 -0.000002 -0.000004 -8.728671 10.710558 0.000007 -0.000000 -0.000000 0.000000 -0.000680 9.278137 -0.000000 0.000000 -0.000001 
0.000006 104.270477 1.554256 0.000010 0.000003 -0.000113 -0.000005 10.181587 0.131522 0.000001 -0.000003 0.000084 -0.000000 9.893967 -1.470711 0.000001 0.000000 -0.000000 -0.000000 9.220802 -1.370642 0.000000 -0.000000 -0.000000 0.000001 16.740433 -2.049030 0.000000 -0.000000 -0.000000 0.000000 9.617859 1.685014 0.000000 0.000000 0.000000 0.000002 22.037384 7.501101 0.000000 -0.000000 0.000000 -4.569968 11.014880 -2.160881 0.000008 0.000001 -0.000038 -10.592855 -0.524809 -2.231835 75.497605 41.776791 -32.922461 -27.841518 -0.000012 0.000552 -46.581071 104.164558 57.851156 -28.328817 -0.000004 0.000030 -0.000316 -0.000047 0.000008 -2.464432 -1.573715 2.682318 -51.444001 -171.223663 -20.254841 -3.215272 -1.872568 1.924662 151.161075 31.684896 7.598090 -2.654961 -1.527865 1.513064 144.767266 27.830871 -31.008215 -2.018830 -1.152000 1.108069 -0.000004 -0.000000 0.000000 -9.108361 -0.517548 2.260136 101.512437 15.085957 -18.471881 -3.700054 0.000315 0.001507 99.172988 13.390892 -15.672146 -2.850087 0.000365 -0.000247 98.267468 11.999400 -13.850941 -2.772162 -0.000000 -0.000018 -0.000001 -0.000003 -0.000000 -9.532578 0.000262 0.000195 85.144414 16.760538 -15.546428 -3.700094 0.000316 0.003952 87.348974 12.109714 -11.475286 -2.950059 0.000340 -0.001833 89.548076 12.410377 -12.306518 -2.946630 0.000001 -0.000151 0.000006 0.000001 0.000002 -9.103691 -0.042778 -1.864889 79.309937 20.997839 -17.426977 -3.379327 0.000291 -0.000860 83.990597 9.942311 -8.970580 -2.889737 0.000333 0.000596 88.320992 8.118183 -7.929389 -2.638808 -0.000016 0.000940 0.000003 0.000001 0.000003 -8.076761 -0.486436 -3.806091 67.817932 23.871001 -16.062040 -3.600075 0.000225 -0.003593 70.772146 12.240839 -8.442548 -2.100027 0.000296 -0.005536 74.018405 7.136268 -5.212458 -2.115770 -0.000041 -0.003677 -0.000000 -0.000001 -0.000003 4.570446 11.014691 -2.160851 -0.000018 0.000010 -0.000021 10.592476 -0.524472 -2.232398 72.907208 -38.391554 28.846153 27.841833 0.000040 -0.000180 114.647416 -76.778361 102.015330 28.328821 -0.000044 0.000026 0.000023 -0.000088 0.000001 2.465992 -1.576157 2.681923 -39.898308 -193.209126 -11.474509 3.217873 -1.871854 1.916391 153.375163 -24.173050 42.021250 2.656110 -1.528631 1.514472 139.631524 -27.846236 47.770848 2.020891 -1.154067 1.115147 0.000004 0.000004 0.000002 9.109379 -0.517862 2.259723 84.244714 -16.471266 14.901991 3.700045 0.000166 -0.000471 83.807753 -12.316979 11.076283 2.850034 0.000179 0.000194 81.978157 -10.559040 9.180544 2.774895 -0.000031 -0.000026 0.000001 0.000001 0.000003 9.533468 0.000197 -0.000088 81.023761 -16.303272 13.947855 3.700041 0.000166 -0.000370 84.199137 -12.439534 11.245487 2.950032 0.000159 -0.000204 82.849867 -12.010001 10.608704 2.952888 -0.000015 0.000062 -0.000000 -0.000001 0.000000 9.104592 -0.042870 -1.865232 80.413777 -16.036176 13.581829 3.150043 0.000178 -0.000095 84.008936 -14.151022 12.757551 2.950014 0.000167 -0.000080 83.651465 -11.955775 10.708662 2.644310 0.000046 0.000056 0.000000 0.000001 -0.000000 8.077847 -0.486735 -3.806422 74.547307 -18.949387 14.942214 3.599999 0.000168 0.014571 74.720808 -17.642686 13.926763 2.100048 0.000162 0.007566 75.545020 -13.233481 10.655584 2.125490 -0.000015 0.007513 0.000002 0.000000 -0.000001 -8.207786 -6.751667 -1.599560 -0.077001 -0.000003 0.000080 -0.000002 -44.370110 0.345938 0.153719 -0.000000 -0.000000 0.000000 -44.423679 -3.043532 -0.076700 0.000000 -0.000002 -0.000006 -8.728667 10.710559 -0.000009 -0.000000 -0.000000 -0.000001 -0.000679 9.278123 0.000000 -0.000000 -0.000000 8.207792 -6.751710 -1.599556 -0.074518 -0.000003 0.000081 -0.000002 -44.370014 0.346960 0.148822 0.000002 0.000000 -0.000001 -44.423664 -3.044403 -0.074314 0.000000 -0.000002 -0.000004 -8.728671 10.710558 0.000007 -0.000000 -0.000000 0.000000 -0.000680 9.278137 -0.000000 0.000000 -0.000001 
